<svg height="64" viewBox="0 0 208 64" width="208" xmlns="http://www.w3.org/2000/svg"><g fill="#cc1c1c"><path d="m52.7 55.8h-2.9l3.4-17.5h2.8z"/><path d="m75.2 38.3-3.4 17.5h-2.5l-4.9-11.9-2.3 11.9h-2.8l3.4-17.5h2.4l4.9 12.1 2.3-12.1z"/><path d="m94.2 38.3-3.4 17.5h-2.5l-4.9-11.9-2.4 11.9h-2.8l3.4-17.5h2.4l4.9 12.1 2.3-12.1z"/><path d="m102.9 56c-3.9 0-6-2.6-5-7.8l.4-2.2c1-5.5 3.9-7.8 8.1-7.8 3.9 0 6 2.6 5 7.8l-.4 2.2c-1.1 5.5-3.8 7.8-8.1 7.8zm-2-7.8c-.7 3.8.2 5.3 2.6 5.3 2.3 0 3.9-1.5 4.6-5.3l.4-2.2c.7-3.8-.2-5.3-2.6-5.3s-3.9 1.5-4.6 5.3z"/><path d="m119.6 38.3 1.8 12.8 6.8-12.8h3.3l-9.5 17.5h-2.7l-2.8-17.5z"/><path d="m129.9 55.8 9.5-17.5h2.8l2.7 17.5h-3l-.5-3.6h-6.3l-1.9 3.6zm6.4-6.2h4.6l-.9-7.1z"/><path d="m163.2 38.3-.5 2.5h-5l-2.9 14.9h-2.9l2.9-14.9h-5l.5-2.5z"/><path d="m170.1 56c-3.9 0-6-2.6-5-7.8l.4-2.2c1-5.5 3.9-7.8 8.1-7.8 3.9 0 6 2.6 5 7.8l-.4 2.2c-1.1 5.5-3.9 7.8-8.1 7.8zm-2.1-7.8c-.7 3.8.2 5.3 2.6 5.3 2.3 0 3.9-1.5 4.6-5.3l.4-2.2c.7-3.8-.2-5.3-2.6-5.3-2.3 0-3.9 1.5-4.6 5.3z"/><path d="m192.1 55.8-2-7.1h-3.5l-1.3 7.1h-2.9l3.4-17.5h5.9c3.3 0 5.5 1.6 5.5 4.5 0 2.7-1.4 4.6-4.2 5.5l2.2 7.5zm-2.1-9.6c3 0 4.3-.9 4.3-3.2 0-1.5-1.1-2.1-3.2-2.1h-2.8l-1 5.3z"/></g><path d="m10.6 16.3c.5-5.6 4-8.3 10.9-8.3 3.7 0 6.5.8 8.4 2.5 1.8 1.5 2.4 3.5 2.4 7.1v11.2c0 2.6.1 3 .9 4.2h-7.3c-.3-.8-.3-1-.5-1.9-2.4 2-4.1 2.6-7 2.6-5.4 0-9-3-9-7.6s2.9-7 9.7-8.1l3.9-.6c1.6-.2 2.2-.6 2.2-1.6 0-1.3-1.4-2.2-3.7-2.2-2.6 0-4 .9-4.3 2.9zm14.8 5.2c-.7.3-1.4.5-2.6.7l-2.6.5c-2.6.6-3.7 1.4-3.7 2.9 0 1.6 1.3 2.6 3.6 2.6 2.4 0 4.1-1 5.3-3.1z" fill="#5a5a5a"/><path d="m45.8 8.7-.2 4.3c1.4-4 3.2-5 8.4-5v6.8c-.8-.1-1.2-.1-1.8-.1-2.5 0-4.5 1.1-5.3 2.9-.7 1.6-.9 3.9-.9 8.6v6.9h-7.2v-24.4z" fill="#5a5a5a"/><path d="m57.3 16.3c.5-5.6 4-8.3 10.9-8.3 3.7 0 6.5.8 8.4 2.5 1.8 1.5 2.4 3.5 2.4 7.1v11.2c0 2.6.1 3 .9 4.2h-7.3c-.3-.8-.3-1-.5-1.9-2.4 2-4.1 2.6-7 2.6-5.4 0-9-3-9-7.6s2.9-7 9.7-8.1l3.9-.6c1.6-.2 2.2-.6 2.2-1.6 0-1.3-1.4-2.2-3.7-2.2-2.6 0-4 .9-4.3 2.9zm14.8 5.2c-.7.3-1.4.5-2.6.7l-2.6.5c-2.6.6-3.7 1.4-3.7 2.9 0 1.6 1.3 2.6 3.6 2.6 2.4 0 4.1-1 5.3-3.1z" fill="#5a5a5a"/><path d="m99 16c-.3-1.8-1.8-2.8-4.1-2.8-2.1 0-3.4.8-3.4 2 0 .9.7 1.3 3 1.9l4.5.9c3 .6 4.5 1.2 5.6 2.4 1.1 1.1 1.8 2.9 1.8 4.9 0 5.1-4.2 8.4-11 8.4s-11-3.2-11.4-8.6h6.7c.4 2.3 1.9 3.4 4.8 3.4 2.3 0 3.7-.9 3.7-2.4 0-1.1-.8-1.8-2.7-2.2l-4.4-1c-5.4-1.1-7.4-3.1-7.4-7-.1-4.9 3.8-7.9 10.4-7.9 6.3 0 10.1 2.8 10.7 8z" fill="#5a5a5a"/><path d="m44.5 40.1h-36.5l.3-1.7h36.5z" fill="#cc1c1c"/><path d="m199.2 33.1h-86.1l.3-1.7h86.1z" fill="#cc1c1c"/></svg>